<svg width="94" height="72" xmlns="http://www.w3.org/2000/svg" xmlns:xlink="http://www.w3.org/1999/xlink" overflow="hidden"><defs><clipPath id="clip0"><rect x="849" y="419" width="94" height="72"/></clipPath></defs><g clip-path="url(#clip0)" transform="translate(-849 -419)"><path d="M929.072 445.391C928.276 440.495 925.582 436.111 921.575 433.191 917.419 430.279 912.254 429.195 907.28 430.191 903.357 424.166 896.666 420.523 889.478 420.5 887.83 420.5 886.188 420.695 884.586 421.082 876.071 423.298 869.698 430.383 868.392 439.088 862.759 439.285 857.512 442.002 854.097 446.488 850.106 452.103 849.382 459.411 852.196 465.7 855.062 471.883 861.09 475.993 867.89 476.4L875.188 476.4 887.489 476.43 887.489 474.43 875.189 474.4 867.952 474.4C861.919 474.016 856.577 470.366 854.023 464.885 851.519 459.252 852.158 452.717 855.707 447.676 858.768 443.692 863.443 441.278 868.462 441.088L870.123 441.029 870.368 439.385C871.536 431.477 877.32 425.035 885.055 423.029 886.503 422.678 887.988 422.501 889.478 422.5 895.994 422.503 902.064 425.808 905.605 431.279L906.344 432.412 907.671 432.146C912.099 431.26 916.697 432.22 920.4 434.805 923.974 437.423 926.378 441.34 927.098 445.712L927.333 447.151 928.774 447.367C936.229 448.417 941.421 455.314 940.372 462.771 939.445 469.351 933.912 474.306 927.273 474.5L916.676 474.5 905.481 474.473 905.481 476.473 916.676 476.5 927.273 476.5C935.901 476.278 942.717 469.1 942.495 460.468 942.299 452.839 936.625 446.466 929.072 445.391Z" stroke="#6C757D" stroke-miterlimit="8" stroke-opacity="0.698039" fill="#6C757D" fill-rule="evenodd" fill-opacity="0.698039"/><path d="M896.987 490.5 896.987 451.315C896.987 451.31 896.991 451.306 896.997 451.306 896.999 451.306 897.002 451.307 897.004 451.308L910.105 464.458 911.5 463.057 896 447.5 880.5 463.057 881.895 464.458 894.996 451.308C895 451.305 895.007 451.305 895.01 451.309 895.012 451.31 895.013 451.313 895.013 451.315L895.013 490.5Z" stroke="#6C757D" stroke-miterlimit="8" stroke-opacity="0.698039" fill="#6C757D" fill-rule="evenodd" fill-opacity="0.698039"/></g></svg>