<svg width="94" height="72" xmlns="http://www.w3.org/2000/svg" xmlns:xlink="http://www.w3.org/1999/xlink" overflow="hidden"><defs><clipPath id="clip0"><rect x="26" y="489" width="94" height="72"/></clipPath></defs><g clip-path="url(#clip0)" transform="translate(-26 -489)"><path d="M106.072 515.391C105.277 510.495 102.582 506.111 98.5746 503.191 94.4195 500.279 89.2544 499.195 84.2799 500.191 80.3575 494.166 73.6656 490.523 66.4784 490.5 64.8304 490.5 63.1883 490.695 61.5862 491.082 53.0706 493.298 46.6982 500.383 45.3922 509.088 39.7591 509.285 34.5119 512.002 31.0975 516.488 27.1057 522.103 26.3824 529.411 29.1961 535.7 32.062 541.883 38.0899 545.993 44.8903 546.4L52.1877 546.4 64.4892 546.43 64.4892 544.43 52.1887 544.4 44.9523 544.4C38.9193 544.016 33.5774 540.366 31.0235 534.885 28.5189 529.252 29.1582 522.717 32.7069 517.676 35.7681 513.692 40.4428 511.278 45.4622 511.088L47.1226 511.029 47.3684 509.385C48.5357 501.477 54.32 495.035 62.055 493.029 63.5034 492.678 64.9882 492.501 66.4784 492.5 72.9937 492.503 79.0637 495.808 82.6045 501.279L83.3442 502.412 84.6707 502.146C89.0988 501.26 93.6965 502.22 97.4 504.805 100.974 507.423 103.378 511.34 104.098 515.712L104.332 517.151 105.774 517.367C113.229 518.417 118.421 525.313 117.371 532.771 116.445 539.351 110.912 544.306 104.273 544.5L93.6765 544.5 82.4806 544.473 82.4806 546.473 93.6765 546.5 104.273 546.5C112.901 546.278 119.717 539.1 119.495 530.468 119.299 522.839 113.625 516.466 106.072 515.391Z" stroke="#FFA500" stroke-miterlimit="8" fill="#FFA500" fill-rule="evenodd"/><path d="M74.5187 560.5 74.5187 520.404C74.5188 520.398 74.5234 520.394 74.529 520.394 74.5316 520.394 74.5342 520.395 74.536 520.397L88.0597 533.852 89.5001 532.419 73.5001 516.5 57.5001 532.419 58.9404 533.852 72.4641 520.397C72.468 520.393 72.4745 520.393 72.4785 520.397 72.4803 520.399 72.4814 520.401 72.4814 520.404L72.4814 560.5Z" stroke="#FFA500" stroke-miterlimit="8" fill="#FFA500" fill-rule="evenodd"/></g></svg>