<svg width="94" height="73" xmlns="http://www.w3.org/2000/svg" xmlns:xlink="http://www.w3.org/1999/xlink" overflow="hidden"><defs><clipPath id="clip0"><rect x="481" y="239" width="94" height="73"/></clipPath></defs><g clip-path="url(#clip0)" transform="translate(-481 -239)"><path d="M561.072 266.391C560.276 261.495 557.582 257.111 553.575 254.191 549.419 251.279 544.254 250.195 539.28 251.191 535.357 245.166 528.666 241.523 521.478 241.5 519.83 241.5 518.188 241.695 516.586 242.082 508.071 244.298 501.698 251.383 500.392 260.088 494.759 260.285 489.512 263.002 486.097 267.488 482.106 273.103 481.382 280.411 484.196 286.7 487.062 292.883 493.09 296.993 499.89 297.4L507.188 297.4 519.489 297.43 519.489 295.43 507.189 295.4 499.952 295.4C493.919 295.016 488.577 291.366 486.023 285.885 483.519 280.252 484.158 273.717 487.707 268.676 490.768 264.692 495.443 262.278 500.462 262.088L502.123 262.029 502.368 260.385C503.536 252.477 509.32 246.035 517.055 244.029 518.503 243.678 519.988 243.501 521.478 243.5 527.994 243.503 534.064 246.808 537.605 252.279L538.344 253.412 539.671 253.146C544.099 252.26 548.697 253.22 552.4 255.805 555.974 258.423 558.378 262.34 559.098 266.712L559.333 268.151 560.774 268.367C568.229 269.417 573.421 276.313 572.372 283.771 571.445 290.351 565.912 295.306 559.273 295.5L548.676 295.5 537.481 295.473 537.481 297.473 548.676 297.5 559.273 297.5C567.901 297.278 574.717 290.1 574.495 281.468 574.299 273.839 568.625 267.466 561.072 266.391Z" stroke="#FFFFFF" stroke-miterlimit="8" fill="#FFFFFF" fill-rule="evenodd"/><path d="M528.987 311.5 528.987 271.404C528.987 271.398 528.991 271.394 528.997 271.394 528.999 271.394 529.002 271.395 529.004 271.397L542.105 284.852 543.5 283.419 528 267.5 512.5 283.419 513.895 284.852 526.996 271.397C527 271.393 527.007 271.393 527.01 271.397 527.012 271.399 527.013 271.401 527.013 271.404L527.013 311.5Z" stroke="#FFFFFF" stroke-miterlimit="8" fill="#FFFFFF" fill-rule="evenodd"/></g></svg>