<svg width="94" height="72" xmlns="http://www.w3.org/2000/svg" xmlns:xlink="http://www.w3.org/1999/xlink" overflow="hidden"><defs><clipPath id="clip0"><rect x="720" y="180" width="94" height="72"/></clipPath></defs><g clip-path="url(#clip0)" transform="translate(-720 -180)"><path d="M800.072 206.391C799.276 201.495 796.582 197.111 792.575 194.191 788.419 191.279 783.254 190.195 778.28 191.191 774.357 185.166 767.666 181.523 760.478 181.5 758.83 181.5 757.188 181.695 755.586 182.082 747.071 184.298 740.698 191.383 739.392 200.088 733.759 200.285 728.512 203.002 725.097 207.488 721.106 213.103 720.382 220.411 723.196 226.7 726.062 232.883 732.09 236.993 738.89 237.4L746.188 237.4 758.489 237.43 758.489 235.43 746.189 235.4 738.952 235.4C732.919 235.016 727.577 231.366 725.023 225.885 722.519 220.252 723.158 213.717 726.707 208.676 729.768 204.692 734.443 202.278 739.462 202.088L741.123 202.029 741.368 200.385C742.536 192.477 748.32 186.035 756.055 184.029 757.503 183.678 758.988 183.501 760.478 183.5 766.994 183.503 773.064 186.808 776.605 192.279L777.344 193.412 778.671 193.146C783.099 192.26 787.697 193.22 791.4 195.805 794.974 198.423 797.378 202.34 798.098 206.712L798.333 208.151 799.774 208.367C807.229 209.417 812.421 216.313 811.372 223.771 810.445 230.351 804.912 235.306 798.273 235.5L787.676 235.5 776.481 235.473 776.481 237.473 787.676 237.5 798.273 237.5C806.901 237.278 813.717 230.1 813.495 221.468 813.299 213.839 807.625 207.466 800.072 206.391Z" stroke="#C6DFC6" stroke-miterlimit="8" fill="#C6DFC6" fill-rule="evenodd"/><path d="M768.519 251.5 768.519 211.404C768.519 211.398 768.523 211.394 768.529 211.394 768.532 211.394 768.534 211.395 768.536 211.397L782.06 224.852 783.5 223.419 767.5 207.5 751.5 223.419 752.94 224.852 766.464 211.397C766.468 211.393 766.475 211.393 766.479 211.397 766.48 211.399 766.481 211.401 766.481 211.404L766.481 251.5Z" stroke="#C6DFC6" stroke-miterlimit="8" fill="#C6DFC6" fill-rule="evenodd"/></g></svg>