<svg width="94" height="72" xmlns="http://www.w3.org/2000/svg" xmlns:xlink="http://www.w3.org/1999/xlink" overflow="hidden"><defs><clipPath id="clip0"><rect x="665" y="593" width="94" height="72"/></clipPath></defs><g clip-path="url(#clip0)" transform="translate(-665 -593)"><path d="M745.072 619.391C744.276 614.495 741.582 610.111 737.575 607.191 733.419 604.279 728.254 603.195 723.28 604.191 719.357 598.166 712.666 594.523 705.478 594.5 703.83 594.5 702.188 594.695 700.586 595.082 692.071 597.298 685.698 604.383 684.392 613.088 678.759 613.285 673.512 616.002 670.097 620.488 666.106 626.103 665.382 633.411 668.196 639.7 671.062 645.883 677.09 649.993 683.89 650.4L691.188 650.4 703.489 650.43 703.489 648.43 691.189 648.4 683.952 648.4C677.919 648.016 672.577 644.366 670.023 638.885 667.519 633.252 668.158 626.717 671.707 621.676 674.768 617.692 679.443 615.278 684.462 615.088L686.123 615.029 686.368 613.385C687.536 605.477 693.32 599.035 701.055 597.029 702.503 596.678 703.988 596.501 705.478 596.5 711.994 596.503 718.064 599.808 721.605 605.279L722.344 606.412 723.671 606.146C728.099 605.26 732.697 606.22 736.4 608.805 739.974 611.423 742.378 615.34 743.098 619.712L743.333 621.151 744.774 621.367C752.229 622.417 757.421 629.313 756.372 636.771 755.445 643.351 749.912 648.306 743.273 648.5L732.676 648.5 721.481 648.473 721.481 650.473 732.676 650.5 743.273 650.5C751.901 650.278 758.717 643.1 758.495 634.468 758.299 626.839 752.625 620.466 745.072 619.391Z" stroke="#4093BF" stroke-miterlimit="8" fill="#4093BF" fill-rule="evenodd"/><path d="M713.519 664.5 713.519 625.315C713.519 625.31 713.523 625.306 713.529 625.306 713.532 625.306 713.534 625.307 713.536 625.308L727.06 638.458 728.5 637.057 712.5 621.5 696.5 637.057 697.94 638.458 711.464 625.308C711.468 625.305 711.475 625.305 711.479 625.309 711.48 625.31 711.481 625.313 711.481 625.315L711.481 664.5Z" stroke="#4093BF" stroke-miterlimit="8" fill="#4093BF" fill-rule="evenodd"/></g></svg>